<svg xmlns="http://www.w3.org/2000/svg" width="980" height="700" viewBox="0 0 980 700">
  <defs>
    <marker id="arrow" viewBox="0 0 10 10" refX="8" refY="5" markerWidth="8" markerHeight="8" orient="auto-start-reverse">
      <path d="M 0 0 L 10 5 L 0 10 z" fill="#4b5563" />
    </marker>
    <style>
      .wire { fill: none; stroke: #4b5563; stroke-width: 3; }
      .hole { fill: none; stroke: #6b7280; stroke-width: 2; }
      .core { fill: none; stroke: #374151; stroke-width: 2.5; }
      .label-circle { fill: white; stroke: #4b5563; stroke-width: 2.5; }
      .label-text { fill: #1f2937; font-family: Arial, sans-serif; font-size: 26px; font-weight: 600; text-anchor: middle; dominant-baseline: middle; }
      .lead { fill: none; stroke: #4b5563; stroke-width: 2.5; marker-end: url(#arrow); }
    </style>
  </defs>

  <rect x="0" y="0" width="980" height="700" fill="white" />

  <!-- Core -->
  <rect class="core" x="280" y="190" width="300" height="300" />
  <g stroke="#6b7280" stroke-width="1.8">
    <line x1="300" y1="190" x2="300" y2="490" />
    <line x1="320" y1="190" x2="320" y2="490" />
    <line x1="340" y1="190" x2="340" y2="490" />
    <line x1="360" y1="190" x2="360" y2="490" />
    <line x1="380" y1="190" x2="380" y2="490" />
    <line x1="400" y1="190" x2="400" y2="490" />
    <line x1="420" y1="190" x2="420" y2="490" />
    <line x1="440" y1="190" x2="440" y2="490" />
    <line x1="460" y1="190" x2="460" y2="490" />
    <line x1="480" y1="190" x2="480" y2="490" />
    <line x1="500" y1="190" x2="500" y2="490" />
    <line x1="520" y1="190" x2="520" y2="490" />
    <line x1="540" y1="190" x2="540" y2="490" />
    <line x1="560" y1="190" x2="560" y2="490" />
  </g>

  <!-- Winding turns (right and bottom orientation) -->
  <path class="wire" d="M 580 230 H 870 V 560 H 560" />
  <path class="wire" d="M 580 260 H 840 V 530 H 560" />
  <path class="wire" d="M 580 290 H 810 V 500 H 560" />
  <path class="wire" d="M 580 320 H 780 V 470 H 560" />
  <path class="wire" d="M 580 350 H 750 V 440 H 560" />
  <path class="wire" d="M 580 380 H 720 V 410 H 560" />

  <!-- Winding holes -->
  <g>
    <g>
      <circle class="hole" cx="610" cy="230" r="9" /><circle class="hole" cx="650" cy="230" r="9" /><circle class="hole" cx="690" cy="230" r="9" /><circle class="hole" cx="730" cy="230" r="9" /><circle class="hole" cx="770" cy="230" r="9" /><circle class="hole" cx="810" cy="230" r="9" /><circle class="hole" cx="850" cy="230" r="9" />
      <circle class="hole" cx="610" cy="260" r="9" /><circle class="hole" cx="650" cy="260" r="9" /><circle class="hole" cx="690" cy="260" r="9" /><circle class="hole" cx="730" cy="260" r="9" /><circle class="hole" cx="770" cy="260" r="9" /><circle class="hole" cx="810" cy="260" r="9" /><circle class="hole" cx="850" cy="260" r="9" />
      <circle class="hole" cx="610" cy="290" r="9" /><circle class="hole" cx="650" cy="290" r="9" /><circle class="hole" cx="690" cy="290" r="9" /><circle class="hole" cx="730" cy="290" r="9" /><circle class="hole" cx="770" cy="290" r="9" /><circle class="hole" cx="810" cy="290" r="9" />
      <circle class="hole" cx="610" cy="320" r="9" /><circle class="hole" cx="650" cy="320" r="9" /><circle class="hole" cx="690" cy="320" r="9" /><circle class="hole" cx="730" cy="320" r="9" /><circle class="hole" cx="770" cy="320" r="9" />
      <circle class="hole" cx="610" cy="350" r="9" /><circle class="hole" cx="650" cy="350" r="9" /><circle class="hole" cx="690" cy="350" r="9" /><circle class="hole" cx="730" cy="350" r="9" />
      <circle class="hole" cx="610" cy="380" r="9" /><circle class="hole" cx="650" cy="380" r="9" /><circle class="hole" cx="690" cy="380" r="9" />
    </g>
    <g>
      <circle class="hole" cx="870" cy="270" r="9" /><circle class="hole" cx="870" cy="310" r="9" /><circle class="hole" cx="870" cy="350" r="9" /><circle class="hole" cx="870" cy="390" r="9" /><circle class="hole" cx="870" cy="430" r="9" /><circle class="hole" cx="870" cy="470" r="9" /><circle class="hole" cx="870" cy="510" r="9" /><circle class="hole" cx="870" cy="550" r="9" />
      <circle class="hole" cx="840" cy="300" r="9" /><circle class="hole" cx="840" cy="340" r="9" /><circle class="hole" cx="840" cy="380" r="9" /><circle class="hole" cx="840" cy="420" r="9" /><circle class="hole" cx="840" cy="460" r="9" /><circle class="hole" cx="840" cy="500" r="9" /><circle class="hole" cx="840" cy="540" r="9" />
      <circle class="hole" cx="810" cy="330" r="9" /><circle class="hole" cx="810" cy="370" r="9" /><circle class="hole" cx="810" cy="410" r="9" /><circle class="hole" cx="810" cy="450" r="9" /><circle class="hole" cx="810" cy="490" r="9" /><circle class="hole" cx="810" cy="530" r="9" />
      <circle class="hole" cx="780" cy="360" r="9" /><circle class="hole" cx="780" cy="400" r="9" /><circle class="hole" cx="780" cy="440" r="9" /><circle class="hole" cx="780" cy="480" r="9" /><circle class="hole" cx="780" cy="520" r="9" />
      <circle class="hole" cx="750" cy="390" r="9" /><circle class="hole" cx="750" cy="430" r="9" /><circle class="hole" cx="750" cy="470" r="9" /><circle class="hole" cx="750" cy="510" r="9" />
      <circle class="hole" cx="720" cy="420" r="9" /><circle class="hole" cx="720" cy="460" r="9" /><circle class="hole" cx="720" cy="500" r="9" />
      <circle class="hole" cx="690" cy="560" r="9" /><circle class="hole" cx="650" cy="560" r="9" /><circle class="hole" cx="610" cy="560" r="9" />
      <circle class="hole" cx="690" cy="530" r="9" /><circle class="hole" cx="650" cy="530" r="9" /><circle class="hole" cx="610" cy="530" r="9" />
      <circle class="hole" cx="690" cy="500" r="9" /><circle class="hole" cx="650" cy="500" r="9" /><circle class="hole" cx="610" cy="500" r="9" />
      <circle class="hole" cx="690" cy="470" r="9" /><circle class="hole" cx="650" cy="470" r="9" /><circle class="hole" cx="610" cy="470" r="9" />
    </g>
  </g>

  <!-- Terminal leads (without 6, 7 only) -->
  <path class="lead" d="M 220 345 H 120" />
  <path class="lead" d="M 560 430 H 170" />
  <path class="lead" d="M 560 470 H 210" />
  <path class="lead" d="M 560 500 H 240" />
  <path class="lead" d="M 560 290 H 360 H 250" />
  <path class="lead" d="M 560 560 H 170" />
  <path class="lead" d="M 560 530 H 235" />
  <path class="lead" d="M 560 230 H 340 H 300" />

  <!-- Terminal labels -->
  <g>
    <circle class="label-circle" cx="92" cy="345" r="24" /><text class="label-text" x="92" y="345">1</text>
    <circle class="label-circle" cx="142" cy="430" r="24" /><text class="label-text" x="142" y="430">2</text>
    <circle class="label-circle" cx="182" cy="470" r="24" /><text class="label-text" x="182" y="470">3</text>
    <circle class="label-circle" cx="212" cy="500" r="24" /><text class="label-text" x="212" y="500">5</text>
    <circle class="label-circle" cx="224" cy="290" r="24" /><text class="label-text" x="224" y="290">4</text>
    <circle class="label-circle" cx="142" cy="560" r="24" /><text class="label-text" x="142" y="560">8</text>
    <circle class="label-circle" cx="206" cy="530" r="24" /><text class="label-text" x="206" y="530">9</text>
    <circle class="label-circle" cx="274" cy="230" r="24" /><text class="label-text" x="274" y="230">10</text>
  </g>
</svg>
