<?xml version="1.0" encoding="UTF-8"?>
<svg version="1.1" xmlns="http://www.w3.org/2000/svg" width="1120" height="928">
<path d="M0 0 C369.6 0 739.2 0 1120 0 C1120 306.24 1120 612.48 1120 928 C750.4 928 380.8 928 0 928 C0 621.76 0 315.52 0 0 Z " fill="#FDFEFE" transform="translate(0,0)"/>
<path d="M0 0 C90.75 0 181.5 0 275 0 C275 26.4 275 52.8 275 80 C245.96 80 216.92 80 187 80 C187 221.24 187 362.48 187 508 C158.95 508 130.9 508 102 508 C102 432.76 102 357.52 102 280 C-2.28 280 -106.56 280 -214 280 C-214 336.43 -214 392.86 -214 451 C-157.57 451 -101.14 451 -43 451 C-43 470.47 -43 489.94 -43 510 C-125.83 510 -208.66 510 -294 510 C-294 342.36 -294 174.72 -294 2 C-211.5 2 -129 2 -44 2 C-44 26.42 -44 50.84 -44 76 C-100.43 76 -156.86 76 -215 76 C-215 119.23 -215 162.46 -215 207 C-110.39 207 -5.78 207 102 207 C102 163.77 102 120.54 102 76 C68.34 76 34.68 76 0 76 C0 50.92 0 25.84 0 0 Z " fill="#4092CD" transform="translate(431,254)"/>
<path d="M0 0 C82.17 0 164.34 0 249 0 C249 23.1 249 46.2 249 70 C196.53 70 144.06 70 90 70 C90 195.4 90 320.8 90 450 C142.47 450 194.94 450 249 450 C249 471.78 249 493.56 249 516 C166.83 516 84.66 516 0 516 C0 345.72 0 175.44 0 0 Z " fill="#4193CD" transform="translate(771,253)"/>
<path d="M0 0 C0.97177232 -0.01303874 1.94354465 -0.02607747 2.94476461 -0.03951132 C4.53449142 -0.02278091 4.53449142 -0.02278091 6.15633392 -0.00571251 C7.28822222 -0.01351246 8.42011052 -0.02131242 9.58629847 -0.02934873 C13.38743837 -0.04932739 17.18758366 -0.03347988 20.98873138 -0.01776695 C23.71040672 -0.02178935 26.43203953 -0.03326079 29.15369415 -0.04431725 C35.78359425 -0.06655777 42.41321143 -0.06174499 49.04312265 -0.04725404 C54.43104715 -0.03596494 59.81889232 -0.03442946 65.20682526 -0.03987312 C65.97347926 -0.04063929 66.74013326 -0.04140545 67.53001919 -0.04219484 C69.08743189 -0.04379345 70.64484457 -0.04541452 72.20225722 -0.04705779 C86.80829371 -0.06131767 101.41417333 -0.04491888 116.0201841 -0.01805596 C128.55453754 0.00428308 141.08865946 0.00040302 153.62300873 -0.02264977 C168.1765434 -0.04940361 182.72994055 -0.05994435 197.28349638 -0.04458845 C198.83519965 -0.04299569 200.38690295 -0.04142384 201.93860626 -0.03987312 C202.70208631 -0.03910175 203.46556635 -0.03833037 204.25218216 -0.03753562 C209.63402872 -0.03321735 215.0157881 -0.04050785 220.39762115 -0.05227089 C226.9557943 -0.06628987 233.5136682 -0.06250896 240.07180703 -0.03586717 C243.41848545 -0.02271999 246.76425131 -0.02027841 250.11099052 -0.03411293 C253.73752805 -0.04772456 257.36265085 -0.03070271 260.9890976 -0.00571251 C262.04891547 -0.01686612 263.10873334 -0.02801973 264.2006669 -0.03951132 C268.98523734 0.02468556 271.31908883 0.07515112 275.26153564 2.97357559 C277.07271576 5.6292057 277.07271576 5.6292057 277.13521576 8.7542057 C276.07271576 11.6292057 276.07271576 11.6292057 272.07271576 14.6292057 C183.63271576 14.6292057 95.19271576 14.6292057 4.07271576 14.6292057 C4.07271576 200.4192057 4.07271576 386.2092057 4.07271576 577.6292057 C89.87271576 577.6292057 175.67271576 577.6292057 264.07271576 577.6292057 C268.07271576 580.6292057 268.07271576 580.6292057 268.57271576 583.5667057 C268.07271576 586.6292057 268.07271576 586.6292057 266.71048737 588.78844547 C262.52709864 591.70780952 258.35177046 591.18350266 253.36837006 591.1438694 C252.26521548 591.15081493 251.16206091 591.15776046 250.02547741 591.16491646 C246.3157596 591.18326502 242.6066756 591.17289987 238.89693451 591.16265297 C236.24274955 591.16970743 233.58861019 591.17831303 230.93444061 591.18876076 C224.46587069 591.2104198 217.99747655 591.21026913 211.52888227 591.20213521 C206.27251056 591.19583952 201.01619018 591.19696827 195.75981903 591.20340729 C195.01216835 591.20430894 194.26451766 591.2052106 193.4942109 591.20613958 C191.97544995 591.20799074 190.45668901 591.2098533 188.93792808 591.21172713 C174.69105263 591.22831206 160.44427616 591.21958035 146.19740665 591.20274156 C133.15729267 591.18804202 120.11740906 591.20267524 107.07732475 591.23151172 C93.69328675 591.26088883 80.30935513 591.27188307 66.92528629 591.26232952 C65.41206171 591.26130695 63.89883711 591.26031234 62.38561249 591.25934601 C61.26876203 591.25863142 61.26876203 591.25863142 60.12934893 591.2579024 C54.87828306 591.25573614 49.62731768 591.26555351 44.37627411 591.28011703 C37.97835586 591.29761359 31.58073141 591.29756183 25.18282485 591.27476538 C21.91736173 591.26359859 18.65252546 591.26320415 15.38706589 591.27906609 C11.84989711 591.29489276 8.31416129 591.28014188 4.77706146 591.25739479 C3.22279717 591.27514838 3.22279717 591.27514838 1.6371336 591.29326063 C0.69111939 591.2808386 -0.25489481 591.26841656 -1.22957611 591.2556181 C-2.04608485 591.25534841 -2.86259359 591.25507872 -3.70384502 591.25480086 C-7.20568326 590.26951059 -8.14524331 588.77136925 -9.92728424 585.6292057 C-10.49954922 582.40599615 -10.46582181 579.23662476 -10.43344212 575.96985817 C-10.43955548 574.98633019 -10.44566884 574.00280222 -10.45196745 572.98947036 C-10.46764385 569.67358569 -10.45467005 566.35842445 -10.44194794 563.04253578 C-10.44726981 560.64939539 -10.45433341 558.25625834 -10.46299499 555.86312771 C-10.47778569 550.64961549 -10.48006577 545.43625024 -10.4713974 540.22273064 C-10.45854193 532.47015825 -10.46847639 524.71773215 -10.48289695 516.96516857 C-10.50785456 503.12038389 -10.50971485 489.27566753 -10.50162283 475.43086693 C-10.49455593 463.31521852 -10.4944869 451.19959667 -10.50148582 439.08394814 C-10.50239715 437.46012141 -10.50330791 435.83629469 -10.50421811 434.21246797 C-10.50560121 431.76565498 -10.5069923 429.318842 -10.50840425 426.87202903 C-10.52138891 404.11794393 -10.52649442 381.36386775 -10.51487064 358.60978127 C-10.51443267 357.75167849 -10.5139947 356.89357571 -10.51354346 356.00946981 C-10.50993646 349.04061324 -10.50610178 342.07175679 -10.50225253 335.10290034 C-10.48740223 307.91338938 -10.49618696 280.72397885 -10.52420807 253.53447914 C-10.55561465 223.00144193 -10.57061291 192.46846417 -10.56040806 161.9354105 C-10.55937124 158.68176144 -10.55838402 155.42811236 -10.55742455 152.17446327 C-10.55717566 151.37330561 -10.55692677 150.57214795 -10.55667034 149.74671278 C-10.55322603 137.63734239 -10.5625525 125.52802441 -10.57819557 113.41866493 C-10.59593765 99.65262141 -10.59613559 85.88670569 -10.57284392 72.1206677 C-10.56031412 64.41199613 -10.56164616 56.70361796 -10.58272478 48.99496341 C-10.59689785 43.24789526 -10.58509342 37.50111984 -10.56292783 31.75408781 C-10.55801531 29.42240262 -10.56163887 27.09068152 -10.57441527 24.75902617 C-10.5904748 21.60164779 -10.57606393 18.44585833 -10.55369663 15.28855324 C-10.56568831 14.37259719 -10.57767999 13.45664114 -10.59003505 12.51292884 C-10.52632709 8.14148445 -10.33621649 6.19084425 -7.69608873 2.56482184 C-4.7664715 0.51678472 -3.51302749 0.0034077 0 0 Z " fill="#4A95CA" transform="translate(109.92728424072266,213.37079429626465)"/>
<path d="M0 0 C0.9523643 -0.01043099 1.90472859 -0.02086198 2.88595241 -0.03160906 C3.92922839 -0.02268617 4.97250436 -0.01376328 6.04739475 -0.00457001 C7.71331892 -0.01392995 7.71331892 -0.01392995 9.41289812 -0.02347898 C13.14793116 -0.03947998 16.88231801 -0.02677632 20.6173563 -0.01421356 C23.28962208 -0.01963155 25.9618428 -0.02660723 28.63409519 -0.0354538 C35.14712555 -0.0532563 41.6599717 -0.04939125 48.17300933 -0.03780323 C53.46607917 -0.02877518 58.75909733 -0.02754218 64.05217266 -0.0318985 C64.80508534 -0.03251143 65.55799803 -0.03312436 66.33372625 -0.03375587 C67.86319547 -0.03503475 69.39266468 -0.03633161 70.92213387 -0.03764623 C85.2701456 -0.0490573 99.61805518 -0.03593051 113.96605016 -0.01444477 C126.27923204 0.00342308 138.59226308 0.00032575 150.90544224 -0.01811981 C165.2000286 -0.03952353 179.49452535 -0.04795478 193.7891255 -0.03567076 C195.31332114 -0.03439655 196.83751679 -0.03313907 198.36171246 -0.0318985 C199.11166694 -0.0312814 199.86162142 -0.03066429 200.63430179 -0.03002849 C205.92094646 -0.02657382 211.20753432 -0.03240653 216.49417019 -0.04181671 C222.93704574 -0.05303272 229.37972635 -0.05000535 235.82257956 -0.02869374 C239.11036245 -0.01817712 242.39775288 -0.01622259 245.68554401 -0.02729034 C249.24846366 -0.03818044 252.81046194 -0.02455975 256.37332249 -0.00457001 C257.41436774 -0.01349289 258.45541299 -0.02241578 259.52800506 -0.03160906 C263.93589309 0.01653752 266.55963106 0.08469225 270.41997719 2.34761047 C272.27385044 4.50336456 272.27385044 4.50336456 272.83635044 7.50336456 C272.27385044 10.50336456 272.27385044 10.50336456 268.27385044 14.50336456 C181.15385044 14.50336456 94.03385044 14.50336456 4.27385044 14.50336456 C4.27385044 201.61336456 4.27385044 388.72336456 4.27385044 581.50336456 C91.06385044 581.50336456 177.85385044 581.50336456 267.27385044 581.50336456 C271.27385044 585.50336456 271.27385044 585.50336456 271.77385044 588.00336456 C271.0706273 591.51948027 270.2242982 592.41059066 267.27385044 594.50336456 C263.68473424 595.1140473 260.11968003 595.03361531 256.48684788 594.99784088 C255.37482063 595.00266971 254.26279339 595.00749854 253.11706835 595.0124737 C249.37734466 595.02377793 245.63829968 595.00639951 241.8986063 594.98920441 C239.22309696 594.99134943 236.54763217 594.99506513 233.8721323 595.00070953 C227.35173493 595.0107964 220.83154031 594.99950712 214.31116813 594.98100893 C206.72162037 594.96025057 199.13211656 594.96038104 191.54254574 594.96135409 C178.00363766 594.96235554 164.46482404 594.94402612 150.92595005 594.91498566 C137.78107577 594.88680481 124.63628464 594.87264433 111.49137974 594.87397003 C110.68166404 594.87404994 109.87194835 594.87412986 109.03769582 594.87421219 C107.82524521 594.87433325 107.82524521 594.87433325 106.58830065 594.87445676 C91.63311541 594.87583567 76.67796557 594.86406152 61.7227918 594.84615033 C56.42921692 594.84011213 51.13564853 594.83799056 45.84207058 594.83708572 C39.39405825 594.83572287 32.94610558 594.82681328 26.49811857 594.80842011 C23.20663544 594.79917251 19.91524426 594.79415824 16.62374592 594.79560852 C13.06035925 594.79658474 9.49722147 594.78532988 5.93386936 594.7707901 C4.88699843 594.7738873 3.8401275 594.77698451 2.7615332 594.78017557 C1.81054325 594.77372667 0.85955331 594.76727778 -0.12025452 594.76063347 C-1.3547005 594.75852019 -1.3547005 594.75852019 -2.61408478 594.75636423 C-4.72614956 594.50336456 -4.72614956 594.50336456 -7.72614956 592.50336456 C-8.63653114 589.77221981 -8.85210352 588.19165719 -8.85495073 585.38433462 C-8.85822292 584.54006858 -8.86149511 583.69580254 -8.86486647 582.82595268 C-8.86338284 581.89643503 -8.86189922 580.96691737 -8.86037064 580.00923252 C-8.86389898 578.52428989 -8.86389898 578.52428989 -8.86749861 577.00934842 C-8.87420716 573.6597732 -8.87372983 570.3102366 -8.87332058 566.96065521 C-8.87661803 564.547908 -8.88034334 562.13516134 -8.88446206 559.72241539 C-8.89344854 553.76612016 -8.89771179 547.80983751 -8.89998102 541.85353727 C-8.9029404 534.72195379 -8.91163613 527.5903802 -8.9203953 520.4588019 C-8.94124954 503.22185621 -8.95171027 485.9849088 -8.96052491 468.74795344 C-8.96472924 460.59782611 -8.96995146 452.44769951 -8.97520944 444.29757281 C-8.99309873 416.41192809 -9.00809666 388.52628318 -9.01552963 360.64063358 C-9.01600439 358.88968311 -9.01648028 357.13873263 -9.01695729 355.38778215 C-9.01719367 354.51945086 -9.01743005 353.65111956 -9.01767359 352.7564752 C-9.01887481 348.35691944 -9.02009025 343.95736368 -9.02131557 339.55780792 C-9.02155572 338.68469664 -9.02179587 337.81158536 -9.0220433 336.91201616 C-9.02994099 308.58644588 -9.05338294 280.26091741 -9.08587152 251.9353654 C-9.12013914 222.00423752 -9.13987783 192.07313413 -9.14317387 162.14198631 C-9.14359143 158.85883485 -9.144071 155.57568341 -9.14459705 152.29253197 C-9.14472025 151.48409813 -9.14484344 150.67566429 -9.14497036 149.84273246 C-9.14730599 136.81205407 -9.16298587 123.78142412 -9.1834389 110.75076302 C-9.20365534 97.66366099 -9.20919405 84.57661737 -9.19966827 71.48950262 C-9.19443727 63.70734169 -9.20040577 55.9253747 -9.22220294 48.14324154 C-9.23722567 42.34320236 -9.23152272 36.54330743 -9.21753242 30.74326133 C-9.21513463 28.38864877 -9.21959071 26.03401789 -9.23136107 23.67943353 C-9.24630761 20.49372771 -9.2369273 17.3090171 -9.22113419 14.12333775 C-9.23135639 13.19616126 -9.2415786 12.26898477 -9.25211057 11.31371203 C-9.18517311 5.18302907 -9.18517311 5.18302907 -6.99059737 1.93357652 C-4.40346773 0.29956061 -3.04077502 0.0024022 0 0 Z " fill="#4694CB" transform="translate(745.726149559021,209.49663543701172)"/>
<path d="M0 0 C1.09105278 -0.00709439 2.18210555 -0.01418877 3.30622053 -0.02149814 C6.96919242 -0.03912715 10.63111014 -0.02094704 14.29406738 -0.00291443 C16.91720565 -0.00805133 19.54034048 -0.01533086 22.16346741 -0.02459717 C28.55274731 -0.04298036 34.94172148 -0.03445713 41.33099186 -0.01650894 C46.52345319 -0.00248562 51.71583149 0.00141045 56.90830994 -0.00195122 C58.01666052 -0.00266738 58.01666052 -0.00266738 59.14740202 -0.00339801 C60.64844471 -0.00442434 62.14948739 -0.0054797 63.65053004 -0.00656378 C76.92483675 -0.0151322 90.19899582 0.00154872 103.4732666 0.03126526 C116.35516563 0.06010304 129.23685196 0.06718642 142.11877441 0.05177307 C156.14492596 0.03501363 170.17097651 0.03097405 184.19713068 0.04848343 C185.69266413 0.05032783 187.1881976 0.05216255 188.68373108 0.0539875 C189.41957002 0.05489959 190.15540896 0.05581168 190.91354606 0.05675141 C196.10000973 0.06235842 201.28642412 0.0590481 206.47288513 0.05244255 C213.45296542 0.04390559 220.43273344 0.05686071 227.4127636 0.08429146 C229.97784958 0.09119098 232.54296418 0.09125661 235.10804939 0.08407593 C238.60305864 0.07541787 242.0971119 0.09127704 245.59204102 0.11352539 C246.6129494 0.10528462 247.63385779 0.09704386 248.6857028 0.08855337 C252.88078091 0.13801864 255.64622663 0.29788166 259.42575741 2.21911716 C261.96989531 5.49620218 261.92230837 7.55599187 261.92420959 11.68800354 C261.93130398 12.39913709 261.93839837 13.11027063 261.94570774 13.84295368 C261.96331309 16.22634205 261.94517206 18.60810497 261.92712402 20.99147034 C261.93226192 22.69984175 261.93954222 24.40820787 261.94880676 26.11656189 C261.96734563 30.75714053 261.95436665 35.39714577 261.93471646 40.03770065 C261.9183491 44.891194 261.92714019 49.74465048 261.93223572 54.59815979 C261.93675882 62.74921342 261.92087343 70.90003772 261.89294434 79.05104065 C261.86089145 88.47831851 261.86090745 97.90518274 261.87815911 107.33248997 C261.89401605 116.39663448 261.887296 125.46062716 261.87022209 134.52476501 C261.86334467 138.38436416 261.86439112 142.24384186 261.87176704 146.10343933 C261.87942122 150.64750375 261.86733233 155.19109673 261.83991814 159.73508072 C261.83302407 161.40399908 261.83294727 163.07296138 261.84013367 164.74187851 C261.84880586 167.01790551 261.8329126 169.2924701 261.8106842 171.56837463 C261.80787728 172.84262802 261.80507036 174.11688141 261.80217838 175.42974854 C261.20619436 179.19580563 260.33440721 180.39079509 257.29602051 182.62818909 C254.23352051 183.12818909 254.23352051 183.12818909 251.29602051 182.62818909 C248.90451549 180.30721682 248.32948826 178.90502388 247.92687702 175.57474899 C247.9296424 174.36904377 247.93240778 173.16333855 247.93525696 171.9210968 C247.9326889 171.24959595 247.93012085 170.57809509 247.92747498 169.88624573 C247.92251162 167.63038711 247.93907478 165.37519752 247.95544434 163.11940002 C247.95636336 161.4768946 247.95596284 159.83438798 247.95434856 158.19188309 C247.95367099 153.79137011 247.97106447 149.39110163 247.99217987 144.99064636 C248.00925861 140.86216965 248.01006889 136.73375254 248.01220703 132.60523987 C248.02795204 120.52952386 248.06983547 108.45385339 248.10852051 96.37818909 C248.17039551 69.40068909 248.23227051 42.42318909 248.29602051 14.62818909 C165.79602051 14.62818909 83.29602051 14.62818909 -1.70397949 14.62818909 C-1.70397949 45.97818909 -1.70397949 77.32818909 -1.70397949 109.62818909 C7.12867676 109.5933844 15.96133301 109.55857971 25.06164551 109.52272034 C31.35916632 109.50544826 37.6566694 109.49006853 43.95419884 109.47742748 C52.11718337 109.46078919 60.28007616 109.43965041 68.44299316 109.40187073 C74.9048671 109.37197807 81.36667188 109.35261641 87.82861304 109.3459236 C91.25049636 109.34201108 94.67218183 109.33280972 98.09400177 109.31099892 C101.91308955 109.289302 105.73176407 109.28621899 109.55090332 109.28761292 C110.68666306 109.27682709 111.82242279 109.26604126 112.99259949 109.25492859 C114.03303909 109.25905258 115.0734787 109.26317657 116.14544678 109.26742554 C117.0488039 109.26466016 117.95216103 109.26189478 118.88289261 109.2590456 C121.82551271 109.70918711 123.19363248 110.53718018 125.29602051 112.62818909 C126.03869672 118.56959876 126.03869672 118.56959876 124.10748959 121.32228851 C121.61916518 123.11613877 119.93021894 123.01097619 116.87501526 123.02259827 C115.74917526 123.03394806 114.62333527 123.04529785 113.46337891 123.05699158 C112.22744995 123.05406097 110.991521 123.05113037 109.71813965 123.04811096 C108.41714828 123.05658051 107.11615692 123.06505005 105.77574158 123.07377625 C102.20545964 123.09601901 98.63540829 123.09892159 95.06506658 123.09702873 C92.0853636 123.09690916 89.10570971 123.10546793 86.12602037 123.11380625 C79.09679775 123.13305024 72.0676939 123.13592054 65.03845215 123.12916565 C57.7849979 123.12252361 50.53205202 123.14539294 43.27870089 123.18247938 C37.05269722 123.21315882 30.82685724 123.22453836 24.60077947 123.22064257 C20.88153017 123.21857321 17.16267641 123.22408217 13.44349861 123.24853516 C9.29642109 123.27490015 5.15041946 123.26108805 1.0032959 123.24342346 C-0.84756119 123.26331833 -0.84756119 123.26331833 -2.73580933 123.28361511 C-10.85321638 123.20300056 -10.85321638 123.20300056 -14.46484375 120.76283264 C-16.3045881 116.10882858 -16.26914796 111.82375979 -16.23742676 106.85865784 C-16.24604233 105.77355927 -16.2546579 104.68846069 -16.26353455 103.57048035 C-16.28622892 99.98530699 -16.27944919 96.40091301 -16.27038574 92.81568909 C-16.27561951 90.32374336 -16.28189508 87.83179962 -16.28916931 85.33985901 C-16.30091294 79.44912394 -16.29129823 73.55866797 -16.27476496 67.66795254 C-16.26382535 62.97256064 -16.27595097 58.27762108 -16.30090332 53.58229065 C-16.33493196 47.10548745 -16.34457246 40.62914939 -16.3341198 34.15226746 C-16.33329896 31.68348754 -16.34018753 29.21469269 -16.35489082 26.74595642 C-16.37228849 23.296006 -16.35783209 19.84760795 -16.33508301 16.39772034 C-16.35262131 14.86554367 -16.35262131 14.86554367 -16.37051392 13.30241394 C-16.35785995 12.36038116 -16.34520599 11.41834839 -16.33216858 10.44776917 C-16.33158227 9.63294571 -16.33099596 8.81812225 -16.33039188 7.97860718 C-14.08760146 -0.43676783 -7.22871299 -0.08380486 0 0 Z " fill="#4693CA" transform="translate(252.7039794921875,566.3718109130859)"/>
<path d="M0 0 C1.10292641 -0.01007584 1.10292641 -0.01007584 2.22813416 -0.02035522 C4.66005194 -0.03936151 7.09169419 -0.04326058 9.52368164 -0.04541016 C11.21375136 -0.05183583 12.90381996 -0.05856402 14.59388733 -0.06558228 C18.13716207 -0.0775613 21.68033925 -0.08126242 25.22363281 -0.08007812 C29.76459301 -0.0798748 34.3049283 -0.10718773 38.84574032 -0.14162254 C42.33646011 -0.16385574 45.82702861 -0.16791679 49.31781197 -0.16685867 C50.99197101 -0.16921962 52.66613392 -0.17807093 54.34022331 -0.19352341 C56.68168851 -0.21311362 59.02179431 -0.20737419 61.36328125 -0.1953125 C62.05484314 -0.20655151 62.74640503 -0.21779053 63.45892334 -0.22937012 C66.57137934 -0.18861342 68.52228881 0.14995851 71.1754303 1.81454468 C73.36985099 5.27327619 73.30593777 8.42291602 73.26391602 12.39208984 C73.27442993 13.61227814 73.27442993 13.61227814 73.28515625 14.8571167 C73.30274848 17.54360176 73.29110953 20.22903174 73.27758789 22.91552734 C73.28028246 24.7835307 73.28416459 26.65153269 73.28918457 28.51953125 C73.29508127 32.4335669 73.28651117 36.34723729 73.26782227 40.26123047 C73.24503257 45.27862623 73.25815474 50.29516616 73.28211212 55.31253052 C73.29656548 59.16958059 73.29196624 63.02642771 73.28160095 66.88348389 C73.27893238 68.7334605 73.28220799 70.58345554 73.29151917 72.43341064 C73.30167726 75.01909192 73.286195 77.60338685 73.26391602 80.18896484 C73.27201294 80.9537616 73.28010986 81.71855835 73.28845215 82.50653076 C73.23909978 85.59783974 73.02954309 87.83504021 71.38124084 90.48605251 C67.19915079 93.35009585 63.03478525 92.8447456 58.07995605 92.80519104 C56.98088503 92.81213657 55.88181401 92.8190821 54.74943781 92.8262381 C51.05353876 92.84458632 47.35827593 92.83422161 43.66235352 92.82397461 C41.01802057 92.83102909 38.37373339 92.8396347 35.72941589 92.8500824 C29.28490925 92.87174125 22.84057905 92.87159082 16.39604795 92.86345685 C11.15922233 92.85716112 5.92244823 92.85828995 0.68562317 92.86472893 C-0.05925215 92.86563058 -0.80412748 92.86653224 -1.57157478 92.86746122 C-3.08469873 92.86931238 -4.59782267 92.87117494 -6.1109466 92.87304877 C-20.30488705 92.88963363 -34.49872816 92.88090204 -48.69266266 92.8640632 C-61.68427801 92.84936367 -74.67566214 92.86399688 -87.66724771 92.89283336 C-101.00156526 92.92221059 -114.33577603 92.93320468 -127.67012453 92.92365116 C-129.17773213 92.92262859 -130.68533975 92.92163398 -132.19294739 92.92066765 C-133.30565168 92.91995306 -133.30565168 92.91995306 -134.44083485 92.91922404 C-139.67236421 92.91705779 -144.9037927 92.92687506 -150.13529968 92.94143867 C-156.50942974 92.95893537 -162.8832649 92.95888326 -169.25738323 92.93608702 C-172.51069553 92.92492036 -175.76337866 92.92452557 -179.01668739 92.94038773 C-182.54072083 92.95621472 -186.06331604 92.94146325 -189.58728027 92.91871643 C-190.61956552 92.93055216 -191.65185077 92.94238789 -192.71541739 92.95458227 C-199.60094353 92.86383483 -199.60094353 92.86383483 -202.88814449 89.97656155 C-204.68040209 86.45111071 -204.8220642 83.32699202 -204.78710938 79.45849609 C-204.79572495 78.68551178 -204.80434052 77.91252747 -204.81321716 77.11611938 C-204.83585652 74.56974477 -204.82914295 72.02447242 -204.82006836 69.47802734 C-204.82530458 67.70352858 -204.83158106 65.92903261 -204.83885193 64.15454102 C-204.84925212 60.43899418 -204.84469982 56.72383044 -204.83007812 53.00830078 C-204.81288375 48.24983262 -204.836395 43.4925712 -204.87156773 38.73423767 C-204.89354012 35.07100442 -204.89210081 31.40806006 -204.88380241 27.74478149 C-204.88298294 25.99051591 -204.88984572 24.2362291 -204.90457344 22.48202515 C-204.92201895 20.02811724 -204.90747997 17.57637964 -204.88476562 15.12255859 C-204.89645782 14.40033112 -204.90815002 13.67810364 -204.92019653 12.93399048 C-204.85533879 9.48566432 -204.27366879 7.32480347 -202.53173828 4.34046936 C-197.3217371 1.08239976 -192.19716996 1.60338281 -186.17333984 1.65942383 C-184.82934627 1.65428283 -183.48535945 1.64700017 -182.14138794 1.63774109 C-178.49871514 1.6192429 -174.85677522 1.63215409 -171.21413302 1.65183139 C-167.40032027 1.66822933 -163.58655351 1.65940357 -159.77272034 1.65431213 C-153.3695201 1.64979298 -146.96661216 1.66565107 -140.56347656 1.69360352 C-133.16119556 1.72566854 -125.7594413 1.72563397 -118.35712284 1.70838875 C-111.23381919 1.69252513 -104.11070861 1.69925518 -96.98741341 1.71632576 C-93.95675579 1.7231972 -90.9262529 1.72216299 -87.89559746 1.71478081 C-84.32737226 1.70711936 -80.75974663 1.71923836 -77.19162369 1.74662971 C-75.25777317 1.75680037 -73.32385067 1.74733005 -71.38999939 1.73730469 C-69.66348145 1.75639137 -69.66348145 1.75639137 -67.90208435 1.77586365 C-66.40192858 1.78007403 -66.40192858 1.78007403 -64.87146664 1.78436947 C-61.51959108 2.43246148 -60.32783714 3.62667555 -58.25366211 6.29052734 C-57.75366211 9.29052734 -57.75366211 9.29052734 -58.25366211 12.29052734 C-60.28769991 14.8757236 -61.4788769 16.1374524 -64.74487686 16.78271866 C-65.68510571 16.77903149 -66.62533455 16.77534431 -67.59405518 16.77154541 C-69.21782074 16.7797934 -69.21782074 16.7797934 -70.87438965 16.78820801 C-72.05690308 16.7738269 -73.2394165 16.7594458 -74.45776367 16.74462891 C-75.70680481 16.74521301 -76.95584595 16.74579712 -78.24273682 16.74639893 C-81.66425749 16.74409007 -85.08481203 16.72403507 -88.50616169 16.6961031 C-92.0829159 16.67109279 -95.65968307 16.66874775 -99.23651123 16.66400146 C-106.00803503 16.65157053 -112.77930042 16.61874756 -119.55071044 16.57860351 C-128.70208126 16.52552799 -137.85352277 16.50394126 -147.0050087 16.48059464 C-161.42142005 16.44298601 -175.8372861 16.36329649 -190.25366211 16.29052734 C-190.25366211 37.08052734 -190.25366211 57.87052734 -190.25366211 79.29052734 C-107.75366211 79.29052734 -25.25366211 79.29052734 59.74633789 79.29052734 C59.74633789 57.51052734 59.74633789 35.73052734 59.74633789 13.29052734 C54.95618164 13.33693359 50.16602539 13.38333984 45.23071289 13.43115234 C42.19553496 13.45159125 39.16044191 13.4708469 36.12524414 13.48583984 C31.30784478 13.50974908 26.4907496 13.53802926 21.67358398 13.59228516 C17.78970254 13.63575555 13.90614727 13.65966688 10.02204132 13.67003632 C8.54043696 13.67742565 7.0588504 13.69185552 5.57738495 13.71344757 C3.50147468 13.74249946 1.42691102 13.74648291 -0.64916992 13.74462891 C-1.83053528 13.75351135 -3.01190063 13.7623938 -4.22906494 13.77154541 C-7.25366211 13.29052734 -7.25366211 13.29052734 -9.67034912 11.4887085 C-11.25366211 9.29052734 -11.25366211 9.29052734 -11.19116211 5.66552734 C-9.48783536 -0.46644894 -5.48720196 -0.00717063 0 0 Z " fill="#4593CA" transform="translate(438.253662109375,345.70947265625)"/>
<path d="M0 0 C1.05148727 -0.0112793 2.10297455 -0.02255859 3.18632507 -0.03417969 C4.90859062 -0.0220343 4.90859062 -0.0220343 6.66564941 -0.00964355 C7.87900467 -0.01665283 9.09235992 -0.02366211 10.34248352 -0.03088379 C13.66713987 -0.04547281 16.99080052 -0.04205387 20.31540108 -0.02936745 C23.7955674 -0.01923545 27.27569137 -0.02863366 30.75585938 -0.03491211 C36.60005324 -0.04218798 42.44404486 -0.03260258 48.28820801 -0.0135498 C55.04347551 0.00821907 61.79826011 0.00116764 68.55351591 -0.02085543 C74.35492697 -0.03901133 80.15619271 -0.0415669 85.957623 -0.03110075 C89.42191768 -0.02486677 92.88598543 -0.02402728 96.3502655 -0.0372467 C100.21209463 -0.05095396 104.07338349 -0.03195228 107.93518066 -0.00964355 C109.0833577 -0.01774048 110.23153473 -0.0258374 111.414505 -0.03417969 C112.99173592 -0.01726074 112.99173592 -0.01726074 114.60083008 0 C115.51374062 0.0015081 116.42665115 0.0030162 117.36722565 0.00457001 C120.58374274 0.66998501 121.7863345 1.96329202 123.80041504 4.50793457 C124.30041504 7.50793457 124.30041504 7.50793457 123.80041504 10.50793457 C122.48041504 11.82793457 121.16041504 13.14793457 119.80041504 14.50793457 C81.52041504 14.50793457 43.24041504 14.50793457 3.80041504 14.50793457 C3.80041504 115.48793457 3.80041504 216.46793457 3.80041504 320.50793457 C44.06041504 320.50793457 84.32041504 320.50793457 125.80041504 320.50793457 C127.78041504 321.99293457 127.78041504 321.99293457 129.80041504 323.50793457 C130.54324762 329.45059519 130.54324762 329.45059519 128.60993195 332.20245457 C126.12928847 333.99212033 124.45715489 333.8880153 121.41064453 333.89561462 C119.73233803 333.91047157 119.73233803 333.91047157 118.02012634 333.92562866 C116.79197708 333.92112701 115.56382782 333.91662537 114.29846191 333.9119873 C113.00561783 333.91885056 111.71277374 333.92571381 110.38075256 333.93278503 C106.83324958 333.95075017 103.28599348 333.94954202 99.73845863 333.94384265 C96.77854674 333.94075599 93.81868263 333.94683731 90.85877752 333.9528814 C83.87753176 333.96693566 76.89640834 333.96535755 69.91516113 333.95397949 C62.70832956 333.94249348 55.5018699 333.9565797 48.29508734 333.98337597 C42.1107157 334.00551135 35.926461 334.01217538 29.74205256 334.00629956 C26.04693351 334.002924 22.35205297 334.00538447 18.65696716 334.02255058 C14.53852668 334.04084803 10.42081319 334.02685514 6.30236816 334.00964355 C5.0742189 334.01931152 3.84606964 334.02897949 2.58070374 334.03894043 C1.46183273 334.02910629 0.34296173 334.01927216 -0.80981445 334.00914001 C-1.78394035 334.00893073 -2.75806625 334.00872145 -3.76171112 334.00850582 C-6.19958496 333.50793457 -6.19958496 333.50793457 -7.82818228 331.82394034 C-9.51059745 328.98270101 -9.57645839 327.24219664 -9.5799017 323.95127106 C-9.58834164 322.8136701 -9.59678158 321.67606914 -9.60547727 320.50399542 C-9.59946723 319.25381707 -9.59345718 318.00363872 -9.58726501 316.71557617 C-9.59143695 315.37441006 -9.5969137 314.03324747 -9.60358483 312.69209146 C-9.61807655 309.00326974 -9.6137832 305.31467072 -9.60641801 301.62583661 C-9.60169786 297.64894829 -9.61418589 293.67210895 -9.62443542 289.69523621 C-9.64165097 281.90320387 -9.64245781 274.11125207 -9.63722252 266.31920564 C-9.63318501 259.98780458 -9.63461938 253.65642738 -9.63997078 247.32502747 C-9.6407192 246.42473191 -9.64146762 245.52443636 -9.64223872 244.59685913 C-9.64377016 242.76806318 -9.64530851 240.93926724 -9.64685369 239.11047131 C-9.66058849 221.95218351 -9.65513398 204.79394128 -9.64366848 187.63565451 C-9.63373317 171.92813974 -9.64668017 156.22074272 -9.67060267 140.51324612 C-9.69496693 124.39459101 -9.70460825 108.2759908 -9.69794995 92.15731764 C-9.69445201 83.10393315 -9.69672764 74.05063928 -9.71420097 64.99726868 C-9.72888951 57.29102832 -9.72960235 49.58494237 -9.71213006 41.87870514 C-9.70359026 37.94501745 -9.70154265 34.01160598 -9.71678162 30.07793236 C-9.7305506 26.47924516 -9.72596732 22.88107286 -9.70654238 19.28241605 C-9.70096046 17.35889428 -9.71511862 15.43534682 -9.72989649 13.51187372 C-9.7200822 12.37427276 -9.7102679 11.2366718 -9.70015621 10.06459808 C-9.70004888 9.0810124 -9.69994154 8.09742671 -9.69983095 7.0840354 C-8.64408298 1.6472837 -5.17020275 0.00854103 0 0 Z " fill="#4895CB" transform="translate(891.1995849609375,342.4920654296875)"/>
<path d="M0 0 C1.15121841 -0.00938095 2.30243683 -0.0187619 3.48854065 -0.02842712 C4.72716354 -0.01719315 5.96578644 -0.00595917 7.24194336 0.00561523 C9.15383705 0.00343239 9.15383705 0.00343239 11.10435486 0.00120544 C13.79895949 0.00286569 16.49215304 0.01235661 19.18652344 0.03515625 C22.63907455 0.06357021 26.09074198 0.06079468 29.5433588 0.04806614 C32.83877738 0.03943904 36.1340525 0.05455256 39.42944336 0.06811523 C40.67009048 0.0651796 41.91073761 0.06224396 43.1889801 0.05921936 C44.33704636 0.07190353 45.48511261 0.08458771 46.66796875 0.09765625 C47.67960587 0.10305923 48.69124298 0.10846222 49.73353577 0.11402893 C52.26928711 0.50170898 52.26928711 0.50170898 54.09202576 1.84336853 C55.9565007 4.46974729 55.71560978 6.37745029 55.26928711 9.50170898 C53.92260742 11.66870117 53.92260742 11.66870117 51.26928711 13.50170898 C47.63836433 14.06714946 44.04531382 13.96587796 40.37866211 13.89233398 C38.78903656 13.8838443 38.78903656 13.8838443 37.16729736 13.87518311 C33.78416683 13.85280139 30.40209727 13.80259997 27.01928711 13.75170898 C24.72503158 13.73164638 22.43075943 13.7133952 20.13647461 13.69702148 C14.51371708 13.65293078 8.89157789 13.58600034 3.26928711 13.50170898 C3.27156543 14.73727291 3.27156543 14.73727291 3.27388978 15.99779773 C3.36333726 64.78135722 3.43200052 113.56490804 3.47354843 162.34853308 C3.47855145 168.20167519 3.48372872 174.05481713 3.48901367 179.90795898 C3.49006291 181.0732495 3.49111216 182.23854002 3.49219319 183.43914238 C3.50961427 202.32518968 3.54116132 221.21118844 3.57789829 240.09720692 C3.61526037 259.46563575 3.63751293 278.8340391 3.64564109 298.20250249 C3.65113869 310.16081647 3.66852307 322.11899328 3.70095298 334.07726505 C3.72204246 342.26949941 3.72849981 350.4616625 3.72329262 358.65392205 C3.72072215 363.38553437 3.72475432 368.11690644 3.74610901 372.84847641 C3.76549976 377.17633637 3.76660614 381.50379332 3.75288269 385.83167139 C3.75118528 387.40105384 3.75632283 388.97046092 3.76881984 390.53979453 C3.78477755 392.66660948 3.77628195 394.79195276 3.76147842 396.91874313 C3.76375675 398.69355596 3.76375675 398.69355596 3.76608109 400.50422359 C3.16593318 404.12531133 2.15491293 405.30260043 -0.73071289 407.50170898 C-3.23071289 408.00170898 -3.23071289 408.00170898 -5.73071289 407.50170898 C-8.64885908 405.28819183 -9.63116685 404.10736571 -10.23210955 400.45111799 C-10.23275896 399.24273787 -10.23340837 398.03435775 -10.23407745 396.78936005 C-10.23989122 396.11228195 -10.24570498 395.43520386 -10.25169492 394.73760825 C-10.26634798 392.45805535 -10.2523861 390.17957031 -10.23864746 387.90002441 C-10.24325431 386.253622 -10.24960577 384.60722369 -10.25755644 382.96083403 C-10.2743027 378.42825458 -10.26597946 373.89601067 -10.25361156 369.36342978 C-10.24458499 364.47855555 -10.25851888 359.59374021 -10.26953125 354.70887756 C-10.28734669 345.13613066 -10.28346304 335.56350898 -10.27188069 325.99075711 C-10.26285852 318.21293871 -10.26161709 310.43515549 -10.26597595 302.65733337 C-10.26658888 301.55166109 -10.26720182 300.44598881 -10.26783332 299.3068113 C-10.26911218 297.06087735 -10.27040904 294.81494341 -10.27172369 292.56900948 C-10.28313835 271.49351111 -10.27000189 250.41808225 -10.24852222 229.34259528 C-10.23065045 211.24667257 -10.23375431 193.15085249 -10.25219727 175.05493164 C-10.27358833 154.05644747 -10.28203963 133.05802428 -10.26974821 112.05953074 C-10.26847397 109.82171536 -10.26721649 107.58389998 -10.26597595 105.34608459 C-10.26535885 104.2449474 -10.26474175 103.1438102 -10.26410595 102.00930521 C-10.26064775 94.23803575 -10.26649149 86.46680487 -10.27589417 78.69554138 C-10.28709595 69.22894993 -10.28411251 59.76249119 -10.26277119 50.29591501 C-10.25223621 45.46303142 -10.24818048 40.63036936 -10.2613678 35.79748726 C-10.27324704 31.37723843 -10.26680346 26.95741742 -10.24545759 22.53720766 C-10.24097247 20.93431001 -10.24330034 19.33137655 -10.25296074 17.72850174 C-10.26505167 15.55650005 -10.25272677 13.385981 -10.23407745 11.21405792 C-10.23342804 10.0056778 -10.23277864 8.79729768 -10.23210955 7.55229998 C-9.23308133 1.47402551 -5.73913637 0.00094195 0 0 Z " fill="#4092CD" transform="translate(653.730712890625,351.498291015625)"/>
<path d="M0 0 C1.40035945 -0.01173486 1.40035945 -0.01173486 2.829009 -0.02370679 C4.37013328 -0.01366855 4.37013328 -0.01366855 5.9423914 -0.00342751 C7.03244089 -0.00810748 8.12249038 -0.01278745 9.24557167 -0.01760924 C12.91685537 -0.02962408 16.58777024 -0.02007646 20.25905704 -0.01066017 C22.88352013 -0.014723 25.5079815 -0.02006325 28.13243961 -0.02659035 C34.53228161 -0.03994971 40.93201823 -0.03704006 47.33186441 -0.02835242 C52.53247351 -0.02158433 57.73305303 -0.02065536 62.93366528 -0.02392387 C63.67312537 -0.02438357 64.41258545 -0.02484327 65.17445343 -0.0253169 C66.67654491 -0.02627606 68.17863638 -0.02724869 69.68072785 -0.02823468 C83.77545773 -0.03679517 97.87012913 -0.02694442 111.96484942 -0.01083358 C124.06343622 0.00256744 136.16193666 0.00024459 148.26052189 -0.01358986 C162.302379 -0.02963883 176.34418481 -0.03596821 190.38604981 -0.02675307 C191.88300072 -0.0257974 193.37995165 -0.02485429 194.87690258 -0.02392387 C195.98175702 -0.02322963 195.98175702 -0.02322963 197.10893176 -0.02252137 C202.30385234 -0.01992922 207.49874042 -0.02430737 212.69365597 -0.03136253 C219.68431667 -0.04064754 226.67481127 -0.03405128 233.66545582 -0.01667976 C236.23580433 -0.01270276 238.80616654 -0.01386958 241.37650967 -0.02046776 C244.87619701 -0.02862529 248.37535525 -0.0184313 251.87500858 -0.00342751 C252.90019405 -0.01011967 253.92537952 -0.01681184 254.98163122 -0.02370679 C255.91781194 -0.01588355 256.85399265 -0.00806031 257.81854248 0 C259.03044877 0.00073059 259.03044877 0.00073059 260.26683801 0.00147593 C263.06971727 0.47941091 264.44251339 1.40516262 266.47219181 3.37752342 C267.01253728 7.09239853 267.11935384 9.34387614 265.10047245 12.56843376 C260.94840801 15.42636938 256.84653312 14.9285317 251.91970158 14.88545799 C250.83288121 14.89169796 249.74606085 14.89793792 248.62630653 14.90436697 C244.97185196 14.92036612 241.31805799 14.90766511 237.66359806 14.89510155 C235.04883782 14.90051956 232.43408064 14.9076404 229.81932926 14.91634178 C223.4470034 14.93414284 217.07486582 14.93028005 210.70253253 14.91869122 C205.52434698 14.90966337 200.34621426 14.90843007 195.16802311 14.91278648 C194.43147387 14.91339942 193.69492463 14.91401235 192.93605572 14.91464385 C191.43984277 14.91592274 189.94362983 14.91721959 188.4474169 14.91853422 C174.41227639 14.92994466 160.37724033 14.91681907 146.34211695 14.89533275 C134.29525365 14.87746132 122.24854452 14.8805653 110.201684 14.8990078 C96.21730701 14.92040636 82.2330216 14.92884598 68.24863052 14.91655874 C66.75787387 14.91528452 65.2671172 14.91402704 63.77636051 14.91278648 C63.04284998 14.91216938 62.30933945 14.91155228 61.55360132 14.91091648 C56.38070071 14.90746052 51.2078581 14.91329719 46.03496647 14.9227047 C39.0746135 14.93508448 32.11455711 14.92629026 25.15423298 14.90312767 C22.59517369 14.89782507 20.03608995 14.89938065 17.47704029 14.90817833 C13.99258575 14.91905567 10.50907586 14.90546359 7.02468204 14.88545799 C5.49376344 14.89884232 5.49376344 14.89884232 3.93191719 14.91249704 C-2.86002469 14.83648788 -2.86002469 14.83648788 -6.15999508 12.56843376 C-8.15631193 9.37081035 -7.99682194 7.06263143 -7.52780819 3.37752342 C-5.31206303 0.36602466 -3.65456248 0.00220356 0 0 Z " fill="#4C97CC" transform="translate(442.5278081893921,207.6224765777588)"/>
<path d="M0 0 C0.66 0 1.32 0 2 0 C1.99962028 1.18190525 1.99924056 2.36381049 1.99884933 3.58153105 C1.98218229 55.66344348 1.96675425 107.74535615 1.95765686 159.82727051 C1.9575188 160.61561907 1.95738075 161.40396764 1.95723851 162.21620556 C1.95424568 179.34865325 1.95147549 196.48110096 1.94893467 213.61354873 C1.94768732 222.01515228 1.94639077 230.41675583 1.94506836 238.81835938 C1.9449376 239.65442521 1.94480684 240.49049105 1.94467212 241.35189221 C1.94040987 268.45698837 1.93289788 295.56208245 1.92370278 322.66717734 C1.9142717 350.51841686 1.90811491 378.36965522 1.90608501 406.2208963 C1.90579685 410.15361694 1.90547121 414.08633759 1.90512276 418.01905823 C1.90505533 418.79308311 1.90498791 419.567108 1.90491844 420.36458818 C1.90373618 432.83021253 1.89909665 445.29583331 1.89316797 457.7614562 C1.88728301 470.28999555 1.88503145 482.81853137 1.88649862 495.34707206 C1.8871928 502.13676082 1.88613925 508.92643848 1.88079453 515.71612549 C1.87593943 521.92903618 1.87567533 528.14192933 1.87910111 534.35484082 C1.87952471 536.60530509 1.87824678 538.85577045 1.87511682 541.10623258 C1.8711147 544.16080655 1.87326051 547.21531687 1.87695217 550.26988983 C1.87432516 551.14730717 1.87169814 552.02472451 1.86899152 552.92873025 C1.87964001 556.81746536 2.02349404 560.56709273 2.56628424 564.42063189 C3.01162758 568.09596006 2.7113029 569.77872395 1 573 C0.67 573 0.34 573 0 573 C0 383.91 0 194.82 0 0 Z " fill="#3D88BA" transform="translate(101,218)"/>
<path d="M0 0 C104.28 0 208.56 0 316 0 C316 0.33 316 0.66 316 1 C311.16342944 2.24533077 306.41333156 2.15284362 301.45562744 2.15821838 C300.00559912 2.16562535 300.00559912 2.16562535 298.5262773 2.17318195 C295.28347045 2.18855178 292.0406834 2.19691693 288.79785156 2.20532227 C286.47317328 2.21490275 284.14849674 2.22491293 281.82382202 2.23532104 C275.50033828 2.26239627 269.17684708 2.2834017 262.85333729 2.30332303 C256.89164268 2.32300605 250.92996751 2.34715138 244.96828935 2.37124526 C233.13121615 2.41893057 221.29413099 2.46216924 209.45703125 2.50268555 C198.021474 2.54183574 186.58592864 2.58326052 175.15039062 2.62768555 C174.44896038 2.63040982 173.74753014 2.63313409 173.02484444 2.63594092 C170.20368072 2.64690633 167.38251705 2.65788536 164.56135346 2.66888306 C142.79844098 2.75367565 121.03551774 2.83622704 99.27257156 2.91189194 C97.00936202 2.91980762 94.74615295 2.92786341 92.48294449 2.93608284 C80.83058426 2.97822845 69.17825619 3.008627 57.52581787 3.01622009 C55.99611213 3.01810014 55.99611213 3.01810014 54.43550324 3.02001816 C45.86715131 3.02170951 37.31316873 2.84568475 28.75 2.5625 C27.38412238 2.52251911 26.01823687 2.48280697 24.65234375 2.44335938 C16.41298271 2.1919426 8.21255233 1.71356398 0 1 C0 0.67 0 0.34 0 0 Z " fill="#458EBF" transform="translate(217,461)"/>
<path d="M0 0 C81.51 0 163.02 0 247 0 C247 22.44 247 44.88 247 68 C245.35 68 243.7 68 242 68 C242.99 67.67 243.98 67.34 245 67 C245 45.55 245 24.1 245 2 C164.15 2 83.3 2 0 2 C0 1.34 0 0.68 0 0 Z " fill="#418ABF" transform="translate(772,254)"/>
<path d="M0 0 C82.17 0 164.34 0 249 0 C247 2 247 2 245.19051987 2.24724633 C244.08227723 2.24529406 244.08227723 2.24529406 242.95164585 2.24330235 C242.09956533 2.24666774 241.24748481 2.25003314 240.36958367 2.25350052 C239.42806432 2.24699272 238.48654498 2.24048492 237.51649475 2.23377991 C236.52051582 2.23478319 235.52453689 2.23578647 234.49837679 2.23682016 C231.13954623 2.23777765 227.7809217 2.22439622 224.42211914 2.21118164 C222.02278201 2.20898189 219.62344392 2.20767525 217.22410583 2.2071991 C212.04685795 2.20425918 206.86965777 2.19524298 201.6924305 2.18089485 C194.20371048 2.16023885 186.71501352 2.15153749 179.22626882 2.1459735 C167.07278688 2.13671104 154.91933181 2.11924624 142.76586914 2.09594727 C142.03807707 2.09455395 141.310285 2.09316064 140.56043863 2.0917251 C139.8317312 2.09032957 139.10302377 2.08893404 138.3522343 2.08749622 C128.02299294 2.06773262 117.69375067 2.04990193 107.36450195 2.03442383 C106.63789669 2.03333298 105.91129142 2.03224213 105.16266782 2.03111822 C93.05677057 2.01310835 80.95087059 1.99914112 68.84496588 1.98725218 C61.37321475 1.97965231 53.90149039 1.96789203 46.42975485 1.95079052 C40.70806911 1.93787646 34.98638494 1.92979792 29.26468849 1.92347908 C26.91322251 1.91999811 24.5617584 1.91477276 22.21030045 1.90771103 C19.01035049 1.89831002 15.81045078 1.89498957 12.61048889 1.89320374 C11.67120027 1.88892665 10.73191165 1.88464957 9.76415974 1.88024288 C8.90947147 1.88100053 8.0547832 1.88175819 7.17419529 1.8825388 C6.43520451 1.88107493 5.69621373 1.87961106 4.93482929 1.87810284 C2.7805265 1.93096237 2.7805265 1.93096237 0 3 C0 2.01 0 1.02 0 0 Z " fill="#408ABD" transform="translate(137,256)"/>
<path d="M0 0 C0.74170944 -0.00029205 1.48341888 -0.00058411 2.24760437 -0.00088501 C4.69879868 0.00050815 7.14968888 0.01606852 9.60083008 0.03173828 C11.30047947 0.03546847 13.00013101 0.03831541 14.69978333 0.04031372 C19.17310524 0.04794976 23.64629727 0.06759799 28.11956787 0.08972168 C32.68426761 0.11018074 37.24898833 0.11931557 41.8137207 0.12939453 C50.77015798 0.15084391 59.72649885 0.18497951 68.68286133 0.22705078 C68.68286133 0.55705078 68.68286133 0.88705078 68.68286133 1.22705078 C67.30556854 1.23251923 67.30556854 1.23251923 65.90045166 1.23809814 C57.24838786 1.27596071 48.59670167 1.33279358 39.94490433 1.41095352 C35.49686454 1.45046729 31.04902386 1.48263648 26.60083008 1.49804688 C22.30823608 1.51318801 18.01618936 1.54758761 13.72383881 1.5953598 C12.0860342 1.6102 10.44815147 1.61809331 8.81027985 1.61893463 C6.51623654 1.62129824 4.2237132 1.64832556 1.92993164 1.68115234 C-0.02864777 1.69447601 -0.02864777 1.69447601 -2.02679443 1.70806885 C-5.87519302 2.315072 -6.96426202 3.19686858 -9.31713867 6.22705078 C-9.97713867 7.21705078 -10.63713867 8.20705078 -11.31713867 9.22705078 C-11.00463867 5.85205078 -11.00463867 5.85205078 -10.31713867 2.22705078 C-6.71796139 -0.17240074 -4.15284343 -0.04266681 0 0 Z " fill="#589FCE" transform="translate(438.317138671875,345.77294921875)"/>
<path d="M0 0 C1.15136948 -0.00960754 2.30273895 -0.01921509 3.48899841 -0.02911377 C5.36241661 -0.03548859 5.36241661 -0.03548859 7.27368164 -0.04199219 C9.18982018 -0.0505423 9.18982018 -0.0505423 11.14466858 -0.05926514 C13.85071377 -0.06872514 16.55664777 -0.07561702 19.26269531 -0.07910156 C22.73089691 -0.08459003 26.19870664 -0.10862607 29.66678524 -0.13707352 C32.97322118 -0.16016884 36.27967631 -0.16214728 39.58618164 -0.16699219 C41.45656349 -0.18551239 41.45656349 -0.18551239 43.36473083 -0.20440674 C44.51925247 -0.20140564 45.67377411 -0.19840454 46.86328125 -0.1953125 C47.88095078 -0.19895813 48.8986203 -0.20260376 49.9471283 -0.20635986 C52.49633789 0.16113281 52.49633789 0.16113281 54.33668518 1.48419189 C56.07138366 3.9926902 55.6938039 6.19914265 55.49633789 9.16113281 C54.17633789 8.50113281 52.85633789 7.84113281 51.49633789 7.16113281 C51.49633789 5.18113281 51.49633789 3.20113281 51.49633789 1.16113281 C43.91555014 1.25357162 36.33507732 1.36089976 28.75463867 1.47851562 C26.17656215 1.51676698 23.59843297 1.55162652 21.02026367 1.58300781 C17.31157627 1.62874114 13.60325026 1.68672322 9.89477539 1.74707031 C8.74455902 1.75862152 7.59434265 1.77017273 6.40927124 1.78207397 C1.08149239 1.88003317 -3.53631012 1.98648563 -8.50366211 4.16113281 C-8.17366211 3.17113281 -7.84366211 2.18113281 -7.50366211 1.16113281 C-4.88573626 -0.14783011 -2.9317443 0.01968578 0 0 Z " fill="#4E9ACA" transform="translate(653.503662109375,351.8388671875)"/>
<path d="M0 0 C0.54140625 0.48082031 1.0828125 0.96164062 1.640625 1.45703125 C4.47897288 3.31323558 6.38792626 3.48737656 9.75 3.6875 C11.22726563 3.78611328 11.22726563 3.78611328 12.734375 3.88671875 C13.85585937 3.94279297 13.85585937 3.94279297 15 4 C15 4.66 15 5.32 15 6 C12.87527424 6.05386629 10.75016348 6.09273071 8.625 6.125 C6.84996094 6.15980469 6.84996094 6.15980469 5.0390625 6.1953125 C2 6 2 6 0 4 C0 2.68 0 1.36 0 0 Z " fill="#4B95C7" transform="translate(235,431)"/>
</svg>
